<?xml version="1.0" encoding="UTF-8"?>
<!-- Generator: Adobe Illustrator 23.0.3, SVG Export Plug-In . SVG Version: 6.00 Build 0)  -->
<svg xmlns="http://www.w3.org/2000/svg" xmlns:xlink="http://www.w3.org/1999/xlink" id="Layer_1" x="0px" y="0px" width="206.8px" height="61.1px" viewBox="0 0 206.8 61.1" style="enable-background:new 0 0 206.8 61.1;" xml:space="preserve">
<style type="text/css">
	.st0{fill:#FFFFFF;}
</style>
<g>
	<g>
		<g>
			<path class="st0" d="M104.4,52h-8.1c0,0.7,0.2,1.4,0.6,2s0.8,1,1.4,1.3c0.6,0.3,1.3,0.5,2,0.5c0.6,0,1.2-0.1,1.7-0.3s1-0.5,1.3-1     l0.5,0.6c-0.4,0.5-0.9,0.9-1.5,1.1c-0.6,0.3-1.3,0.4-2,0.4c-0.9,0-1.8-0.2-2.5-0.6c-0.7-0.4-1.3-1-1.7-1.7s-0.6-1.5-0.6-2.5     c0-0.9,0.2-1.7,0.6-2.5c0.4-0.7,0.9-1.3,1.6-1.7S99.1,47,100,47s1.6,0.2,2.3,0.6c0.7,0.4,1.2,1,1.6,1.7c0.4,0.7,0.6,1.5,0.6,2.4     L104.4,52z M98.2,48.2c-0.5,0.3-1,0.7-1.3,1.2c-0.3,0.5-0.5,1.1-0.5,1.8h7.2c0-0.7-0.2-1.3-0.5-1.8c-0.3-0.5-0.8-0.9-1.3-1.2     c-0.5-0.3-1.1-0.5-1.8-0.5S98.7,47.9,98.2,48.2z"></path>
			<path class="st0" d="M114.6,48c0.7,0.7,1,1.7,1,3v5.5h-0.9V51c0-1.1-0.3-1.9-0.8-2.4c-0.5-0.6-1.3-0.8-2.2-0.8     c-1.1,0-2,0.3-2.6,1c-0.6,0.7-1,1.5-1,2.7v5h-0.9V47h0.9v2c0.3-0.7,0.8-1.2,1.4-1.5c0.6-0.4,1.4-0.6,2.3-0.6     C113,47,113.9,47.3,114.6,48z"></path>
			<path class="st0" d="M127.8,47v8.4c0,1.6-0.4,2.7-1.1,3.5c-0.8,0.7-1.9,1.1-3.4,1.1c-0.9,0-1.7-0.1-2.4-0.4s-1.4-0.6-1.9-1.1     l0.5-0.7c0.5,0.4,1,0.8,1.7,1s1.4,0.4,2.1,0.4c1.2,0,2.2-0.3,2.8-0.9s0.9-1.5,0.9-2.8V54c-0.4,0.7-0.9,1.2-1.6,1.6     s-1.5,0.6-2.3,0.6c-0.9,0-1.7-0.2-2.4-0.6c-0.7-0.4-1.3-0.9-1.7-1.6c-0.4-0.7-0.6-1.5-0.6-2.4c0-0.9,0.2-1.7,0.6-2.4     c0.4-0.7,1-1.2,1.7-1.6c0.7-0.4,1.5-0.6,2.4-0.6c0.9,0,1.6,0.2,2.3,0.6s1.2,0.9,1.6,1.6V47H127.8z M125.1,54.8     c0.6-0.3,1-0.8,1.4-1.3c0.3-0.6,0.5-1.2,0.5-2c0-0.7-0.2-1.4-0.5-1.9s-0.8-1-1.4-1.3c-0.6-0.3-1.2-0.5-2-0.5     c-0.7,0-1.4,0.2-2,0.5c-0.6,0.3-1,0.8-1.4,1.3s-0.5,1.2-0.5,1.9c0,0.7,0.2,1.4,0.5,2c0.3,0.6,0.8,1,1.4,1.3     c0.6,0.3,1.2,0.5,2,0.5C123.8,55.3,124.5,55.1,125.1,54.8z"></path>
			<path class="st0" d="M131.6,44.5c-0.1-0.1-0.2-0.3-0.2-0.5s0.1-0.4,0.2-0.5c0.1-0.1,0.3-0.2,0.5-0.2c0.2,0,0.4,0.1,0.5,0.2     s0.2,0.3,0.2,0.5c0,0.2-0.1,0.4-0.2,0.5s-0.3,0.2-0.5,0.2C131.9,44.8,131.7,44.7,131.6,44.5z M131.7,47h0.9v9.4h-0.9V47z"></path>
			<path class="st0" d="M143.7,48c0.7,0.7,1,1.7,1,3v5.5h-0.9V51c0-1.1-0.3-1.9-0.8-2.4c-0.5-0.6-1.3-0.8-2.2-0.8     c-1.1,0-2,0.3-2.6,1c-0.6,0.7-1,1.5-1,2.7v5h-0.9V47h0.9v2c0.3-0.7,0.8-1.2,1.4-1.5c0.6-0.4,1.4-0.6,2.3-0.6     C142.1,47,143,47.3,143.7,48z"></path>
			<path class="st0" d="M156.4,52h-8.1c0,0.7,0.2,1.4,0.6,2c0.3,0.6,0.8,1,1.4,1.3c0.6,0.3,1.3,0.5,2,0.5c0.6,0,1.2-0.1,1.7-0.3     c0.5-0.2,1-0.5,1.3-1l0.5,0.6c-0.4,0.5-0.9,0.9-1.5,1.1c-0.6,0.3-1.3,0.4-2,0.4c-0.9,0-1.8-0.2-2.5-0.6s-1.3-1-1.7-1.7     s-0.6-1.5-0.6-2.5c0-0.9,0.2-1.7,0.6-2.5s0.9-1.3,1.6-1.7s1.5-0.6,2.3-0.6s1.6,0.2,2.3,0.6c0.7,0.4,1.2,1,1.6,1.7     c0.4,0.7,0.6,1.5,0.6,2.4L156.4,52z M150.2,48.2c-0.5,0.3-1,0.7-1.3,1.2c-0.3,0.5-0.5,1.1-0.5,1.8h7.2c0-0.7-0.2-1.3-0.5-1.8     s-0.8-0.9-1.3-1.2s-1.1-0.5-1.8-0.5S150.7,47.9,150.2,48.2z"></path>
			<path class="st0" d="M167.2,52h-8.1c0,0.7,0.2,1.4,0.6,2c0.3,0.6,0.8,1,1.4,1.3c0.6,0.3,1.3,0.5,2,0.5c0.6,0,1.2-0.1,1.7-0.3     c0.5-0.2,1-0.5,1.3-1l0.5,0.6c-0.4,0.5-0.9,0.9-1.5,1.1c-0.6,0.3-1.3,0.4-2,0.4c-0.9,0-1.8-0.2-2.5-0.6s-1.3-1-1.7-1.7     s-0.6-1.5-0.6-2.5c0-0.9,0.2-1.7,0.6-2.5s0.9-1.3,1.6-1.7s1.5-0.6,2.3-0.6s1.6,0.2,2.3,0.6c0.7,0.4,1.2,1,1.6,1.7     c0.4,0.7,0.6,1.5,0.6,2.4L167.2,52z M160.9,48.2c-0.5,0.3-1,0.7-1.3,1.2c-0.3,0.5-0.5,1.1-0.5,1.8h7.2c0-0.7-0.2-1.3-0.5-1.8     s-0.8-0.9-1.3-1.2s-1.1-0.5-1.8-0.5S161.5,47.9,160.9,48.2z"></path>
			<path class="st0" d="M172.2,47.5c0.6-0.4,1.4-0.5,2.2-0.5v0.9l-0.2,0c-1,0-1.9,0.3-2.4,1c-0.6,0.7-0.9,1.6-0.9,2.7v4.9H170V47     h0.9v2.1C171.1,48.4,171.6,47.9,172.2,47.5z"></path>
			<path class="st0" d="M176.8,44.5c-0.1-0.1-0.2-0.3-0.2-0.5s0.1-0.4,0.2-0.5c0.1-0.1,0.3-0.2,0.5-0.2c0.2,0,0.4,0.1,0.5,0.2     s0.2,0.3,0.2,0.5c0,0.2-0.1,0.4-0.2,0.5s-0.3,0.2-0.5,0.2C177.2,44.8,177,44.7,176.8,44.5z M176.9,47h0.9v9.4h-0.9V47z"></path>
			<path class="st0" d="M189,48c0.7,0.7,1,1.7,1,3v5.5h-0.9V51c0-1.1-0.3-1.9-0.8-2.4c-0.5-0.6-1.3-0.8-2.2-0.8c-1.1,0-2,0.3-2.6,1     c-0.6,0.7-1,1.5-1,2.7v5h-0.9V47h0.9v2c0.3-0.7,0.8-1.2,1.4-1.5c0.6-0.4,1.4-0.6,2.3-0.6C187.4,47,188.3,47.3,189,48z"></path>
			<path class="st0" d="M202.2,47v8.4c0,1.6-0.4,2.7-1.1,3.5c-0.8,0.7-1.9,1.1-3.4,1.1c-0.9,0-1.7-0.1-2.4-0.4     c-0.8-0.3-1.4-0.6-1.9-1.1l0.5-0.7c0.5,0.4,1,0.8,1.7,1c0.7,0.2,1.4,0.4,2.1,0.4c1.2,0,2.2-0.3,2.8-0.9s0.9-1.5,0.9-2.8V54     c-0.4,0.7-0.9,1.2-1.6,1.6c-0.7,0.4-1.5,0.6-2.3,0.6c-0.9,0-1.7-0.2-2.4-0.6c-0.7-0.4-1.3-0.9-1.7-1.6s-0.6-1.5-0.6-2.4     c0-0.9,0.2-1.7,0.6-2.4c0.4-0.7,1-1.2,1.7-1.6c0.7-0.4,1.5-0.6,2.4-0.6c0.9,0,1.6,0.2,2.3,0.6s1.2,0.9,1.6,1.6V47H202.2z      M199.4,54.8c0.6-0.3,1-0.8,1.4-1.3c0.3-0.6,0.5-1.2,0.5-2c0-0.7-0.2-1.4-0.5-1.9c-0.3-0.6-0.8-1-1.4-1.3c-0.6-0.3-1.2-0.5-2-0.5     c-0.7,0-1.4,0.2-2,0.5c-0.6,0.3-1,0.8-1.4,1.3s-0.5,1.2-0.5,1.9c0,0.7,0.2,1.4,0.5,2c0.3,0.6,0.8,1,1.4,1.3     c0.6,0.3,1.2,0.5,2,0.5C198.2,55.3,198.9,55.1,199.4,54.8z"></path>
		</g>
	</g>
	<g>
		<path class="st0" d="M69.3,6.7h5.9v26.5h16.5v5H69.3V6.7z"></path>
		<path class="st0" d="M118.8,14.2v24h-5.4v-3.1c-0.9,1.1-2,1.9-3.4,2.5c-1.4,0.6-2.8,0.9-4.4,0.9c-3.2,0-5.7-0.9-7.6-2.7    c-1.8-1.8-2.8-4.4-2.8-7.9V14.2h5.6v13c0,2.2,0.5,3.8,1.5,4.8c1,1.1,2.4,1.6,4.2,1.6c2,0,3.6-0.6,4.8-1.9c1.2-1.2,1.8-3,1.8-5.4    V14.2H118.8z"></path>
		<path class="st0" d="M130.5,37c-2-1.1-3.5-2.5-4.6-4.4c-1.1-1.9-1.7-4-1.7-6.4c0-2.4,0.6-4.5,1.7-6.3c1.1-1.9,2.6-3.3,4.6-4.4    c2-1,4.2-1.6,6.7-1.6c2.4,0,4.4,0.5,6.2,1.4c1.8,1,3.1,2.3,4,4.1l-4.3,2.5c-0.7-1.1-1.6-1.9-2.6-2.5c-1-0.6-2.2-0.8-3.4-0.8    c-2.1,0-3.8,0.7-5.2,2c-1.4,1.4-2.1,3.2-2.1,5.5c0,2.3,0.7,4.1,2,5.5c1.4,1.4,3.1,2,5.2,2c1.2,0,2.4-0.3,3.4-0.8    c1-0.6,1.9-1.4,2.6-2.5l4.3,2.5c-0.9,1.8-2.3,3.2-4.1,4.2c-1.8,1-3.8,1.5-6.2,1.5C134.7,38.6,132.5,38,130.5,37z"></path>
		<path class="st0" d="M169.6,16.5c1.9,1.7,2.8,4.3,2.8,7.7v14.1h-5.3v-2.9c-0.7,1.1-1.7,1.9-2.9,2.4s-2.8,0.8-4.6,0.8    c-1.8,0-3.4-0.3-4.7-0.9c-1.4-0.6-2.4-1.5-3.1-2.6c-0.7-1.1-1.1-2.3-1.1-3.7c0-2.2,0.8-3.9,2.4-5.2c1.6-1.3,4.1-2,7.6-2h6.2v-0.4    c0-1.7-0.5-3-1.5-3.9c-1-0.9-2.5-1.4-4.5-1.4c-1.3,0-2.7,0.2-4,0.6c-1.3,0.4-2.4,1-3.3,1.8l-2.2-4.1c1.3-1,2.8-1.7,4.5-2.2    c1.8-0.5,3.6-0.8,5.6-0.8C165,13.9,167.7,14.8,169.6,16.5z M164.5,33.5c1.1-0.6,1.9-1.6,2.3-2.8v-2.8H161c-3.2,0-4.9,1.1-4.9,3.2    c0,1,0.4,1.8,1.2,2.4c0.8,0.6,1.9,0.9,3.4,0.9C162.1,34.5,163.4,34.1,164.5,33.5z"></path>
		<path class="st0" d="M200.6,16.6c1.8,1.8,2.7,4.4,2.7,7.9v13.8h-5.6V25.2c0-2.1-0.5-3.7-1.5-4.7c-1-1.1-2.4-1.6-4.2-1.6    c-2.1,0-3.7,0.6-4.9,1.9c-1.2,1.2-1.8,3-1.8,5.4v12.2h-5.6v-24h5.4v3.1c0.9-1.1,2.1-2,3.5-2.5c1.4-0.6,3-0.9,4.8-0.9    C196.3,13.9,198.7,14.8,200.6,16.6z"></path>
	</g>
	<path class="st0" d="M18.7,45.7c-4.1,0-7.5-3.4-7.5-7.5s3.4-7.5,7.5-7.5c0.5,0,0.8,0.4,0.8,0.8c0,0.5-0.4,0.8-0.8,0.8   c-3.2,0-5.8,2.6-5.8,5.8c0,1.6,0.6,3,1.7,4.1c1.1,1.1,2.6,1.7,4.1,1.7c3.2,0,5.8-2.6,5.8-5.8c0-0.5,0.4-0.8,0.8-0.8   c0.5,0,0.8,0.4,0.8,0.8C26.1,42.3,22.8,45.7,18.7,45.7z"></path>
	<path class="st0" d="M17.5,56.9c-1.4,0-2.6-1-2.8-2.4l-0.4-2.2l-0.3-0.1c-0.7-0.2-1.4-0.5-2.1-0.9l-0.2-0.1L10,52.5   c-0.5,0.3-1.1,0.5-1.7,0.5h0c-0.8,0-1.5-0.3-2-0.8l-1.6-1.6c-1-1-1.1-2.5-0.3-3.7l1.3-1.8l-0.1-0.2c-0.3-0.7-0.6-1.4-0.9-2.1   l-0.1-0.3l-2.2-0.4C1,42,0,40.8,0,39.4v-2.3c0-1.4,1-2.6,2.4-2.9l2.2-0.4l0.1-0.2c0.2-0.7,0.5-1.4,0.9-2.1l0.1-0.2l-1.3-1.8   c-0.8-1.1-0.7-2.7,0.3-3.7l1.6-1.6c0.5-0.5,1.3-0.8,2-0.8c0.6,0,1.2,0.2,1.7,0.5l1.8,1.3L12,25c0.7-0.3,1.4-0.6,2.1-0.9l0.3-0.1   l0.4-2.2c0.1-0.4,0.4-0.6,0.8-0.6c0,0,0.1,0,0.1,0c0.2,0,0.4,0.1,0.5,0.3c0.1,0.2,0.2,0.4,0.2,0.6l-0.5,2.7   c-0.1,0.3-0.3,0.6-0.6,0.7c-1.1,0.3-2.1,0.7-3.1,1.3c-0.1,0.1-0.3,0.1-0.4,0.1c-0.2,0-0.3-0.1-0.5-0.2L9,25.3   C8.8,25.1,8.6,25,8.3,25c-0.3,0-0.7,0.1-0.9,0.4L5.9,27c-0.4,0.4-0.5,1.1-0.1,1.6l1.5,2.2c0.2,0.3,0.2,0.6,0,0.9   c-0.6,1-1,2-1.3,3.1c-0.1,0.3-0.3,0.5-0.7,0.6l-2.7,0.5c-0.6,0.1-1,0.6-1,1.2v2.3c0,0.6,0.4,1.1,1,1.2l2.7,0.5   c0.3,0.1,0.6,0.3,0.7,0.6c0.3,1.1,0.7,2.1,1.3,3.1c0.1,0.3,0.1,0.6-0.1,0.9l-1.5,2.2c-0.4,0.5-0.3,1.2,0.1,1.6L7.4,51   c0.2,0.2,0.5,0.4,0.9,0.4c0.3,0,0.5-0.1,0.7-0.2l2.2-1.5c0.1-0.1,0.3-0.2,0.5-0.2c0.1,0,0.3,0,0.4,0.1c1,0.6,2,1,3.1,1.3   c0.3,0.1,0.5,0.3,0.6,0.7l0.5,2.7c0.1,0.6,0.6,1,1.2,1h2.3c0.6,0,1.1-0.4,1.2-0.9l0.5-2.7c0.1-0.3,0.3-0.6,0.6-0.7   c1.1-0.3,2.1-0.7,3.1-1.3c0.1-0.1,0.3-0.1,0.4-0.1c0.2,0,0.3,0.1,0.5,0.2l2.2,1.5c0.2,0.1,0.5,0.2,0.7,0.2c0.3,0,0.7-0.1,0.9-0.4   l1.6-1.6c0.4-0.4,0.5-1.1,0.1-1.6l-1.6-2.2c-0.2-0.3-0.2-0.6,0-0.9c0.6-1,1-2,1.3-3.1c0.1-0.3,0.3-0.5,0.7-0.6c0,0,2.7-0.5,2.8-0.5   c0,0,0.1,0,0.1,0c0.4,0,0.8,0.3,0.8,0.7c0.1,0.5-0.3,0.9-0.7,0.9l-2.2,0.4l-0.1,0.3c-0.2,0.7-0.5,1.4-0.9,2.1l-0.1,0.2l1.3,1.8   c0.8,1.1,0.7,2.7-0.3,3.7l-1.6,1.6c-0.5,0.5-1.3,0.8-2,0.8c-0.6,0-1.2-0.2-1.7-0.5l-1.8-1.3l-0.2,0.1c-0.7,0.3-1.4,0.6-2.1,0.9   L23,52.3l-0.4,2.2c-0.2,1.4-1.4,2.4-2.8,2.4H17.5z"></path>
	<path class="st0" d="M36.6,37.2c-1.1,0-2-0.6-2.5-1.6l-0.8-1.7l-0.2,0c-1-0.1-2.1-0.4-3-0.9l-0.2-0.1l-1.5,1   c-0.5,0.3-1,0.5-1.6,0.5c-0.7,0-1.4-0.3-2-0.8l-1.5-1.5c-1-1-1.1-2.4-0.3-3.5l1-1.5l-0.1-0.2c-0.4-1-0.7-2-0.8-3.1l0-0.2l-1.7-0.8   c-1.2-0.6-1.9-1.9-1.5-3.2l0.6-2c0.3-1.2,1.4-2.1,2.7-2.1c0.1,0,0.2,0,0.2,0l1.8,0.2l0.1-0.2c0.6-0.8,1.4-1.6,2.2-2.2l0.2-0.1   l-0.2-1.8c-0.1-1.4,0.7-2.6,2.1-2.9l2.1-0.6c0.2-0.1,0.5-0.1,0.7-0.1c1.1,0,2.1,0.6,2.5,1.6l0.8,1.7l0.2,0c1.1,0.1,2.1,0.4,3.1,0.8   l0.2,0.1l1.5-1.1c0.5-0.3,1-0.5,1.6-0.5c0.7,0,1.4,0.3,2,0.8l1.5,1.5c1,1,1.1,2.4,0.3,3.5l-1,1.5l0.1,0.2c0.4,1,0.7,2,0.8,3.1   l0,0.2l1.7,0.8c1.2,0.6,1.9,1.9,1.5,3.2l-0.6,2c-0.3,1.2-1.4,2.1-2.7,2.1h0c-0.1,0-0.2,0-0.2,0l-1.8-0.2l-0.1,0.2   c-0.3,0.4-0.7,0.8-1.1,1.2c-0.4,0.4-0.8,0.7-1.2,1.1l-0.2,0.1l0.2,1.8c0.1,1.3-0.7,2.6-2,2.9l-2,0.6C37.1,37.1,36.8,37.2,36.6,37.2   z M29.7,31.2c0.1,0,0.3,0,0.4,0.1c1.2,0.6,2.5,0.9,3.9,1c0.3,0,0.6,0.2,0.7,0.5l1,2.1c0.2,0.4,0.6,0.6,1,0.6c0.1,0,0.2,0,0.3,0   l2-0.6c0.5-0.1,0.9-0.6,0.8-1.2l-0.2-2.3c0-0.3,0.1-0.6,0.4-0.8c1.1-0.7,2.1-1.7,2.8-2.8c0.2-0.2,0.4-0.4,0.7-0.4c0,0,0,0,0.1,0   l2.3,0.2l0.1,0c0.5,0,1-0.4,1.1-0.9l0.4-1.4l0,0l0.2-0.6c0.1-0.5-0.1-1.1-0.6-1.3l-2.1-1c-0.3-0.1-0.5-0.4-0.5-0.7   c-0.1-1.3-0.4-2.6-1-3.8c-0.1-0.3-0.1-0.6,0.1-0.8l1.3-1.9c0.3-0.4,0.3-1.1-0.1-1.4l-1.5-1.5c-0.2-0.2-0.5-0.3-0.8-0.3   c-0.2,0-0.5,0.1-0.6,0.2l-1.9,1.3c-0.1,0.1-0.3,0.2-0.5,0.2c-0.1,0-0.3,0-0.4-0.1c-1.2-0.6-2.5-0.9-3.8-1c-0.3,0-0.6-0.2-0.7-0.5   l-1-2.1c-0.2-0.4-0.6-0.6-1-0.6c-0.1,0-0.2,0-0.3,0l-2,0.6c-0.5,0.1-0.9,0.6-0.8,1.2l0.2,2.3c0,0.3-0.1,0.6-0.4,0.8   c-1.1,0.7-2.1,1.7-2.8,2.8c-0.2,0.2-0.4,0.4-0.7,0.4c0,0,0,0-0.1,0l-2.3-0.2l-0.1,0c-0.5,0-1,0.4-1.1,0.9l-0.5,2   c-0.1,0.5,0.1,1.1,0.6,1.3l2.1,1c0.3,0.1,0.5,0.4,0.5,0.7c0.1,1.3,0.4,2.6,1,3.8c0.1,0.3,0.1,0.6-0.1,0.8l-1.3,1.9   C24,30,24,30.6,24.4,31l1.5,1.5c0.2,0.2,0.5,0.3,0.8,0.3c0.2,0,0.5-0.1,0.6-0.2l1.9-1.3C29.4,31.2,29.5,31.2,29.7,31.2z"></path>
	<path class="st0" d="M34.5,27.4c-2.8,0-5-2.3-5-5s2.3-5,5-5c2.8,0,5,2.3,5,5C39.5,25.2,37.3,27.4,34.5,27.4z M34.5,19   c-1.9,0-3.4,1.5-3.4,3.4c0,1.9,1.5,3.4,3.4,3.4c1.9,0,3.4-1.5,3.4-3.4C37.9,20.5,36.3,19,34.5,19L34.5,19L34.5,19z"></path>
</g>
</svg>
